<?xml version="1.0" encoding="UTF-8"?>
<svg id="Layer_2" data-name="Layer 2" xmlns="http://www.w3.org/2000/svg" viewBox="0 0 53.47 53.47">
  <defs>
    <style>
      .cls-1 {
        fill: #ff7518;
      }

      .cls-1, .cls-2, .cls-3 {
        stroke-width: 0px;
      }

      .cls-2 {
        fill: #fff;
      }

      .cls-3 {
        fill: #265787;
      }
    </style>
  </defs>
  <g id="Layer_1-2" data-name="Layer 1">
    <g>
      <g>
        <path class="cls-2" d="M46.41,51.5l-10.49-8.1c-2.74,1.45-5.87,2.28-9.19,2.28-10.87,0-19.68-8.81-19.68-19.68S15.87,6.32,26.74,6.32s19.43,8.58,19.67,19.24h.01v25.93Z"/>
        <path class="cls-1" d="M53.42,25.08C52.56,11.09,40.95,0,26.74,0S0,11.97,0,26.74s11.09,25.83,25.08,26.68l-.05.05h28.45v-28.45l-.05.05ZM43.21,47.82l-8.78-6.78c-2.3,1.22-4.91,1.91-7.69,1.91-9.1,0-16.47-7.38-16.47-16.47s7.38-16.47,16.47-16.47,16.27,7.18,16.46,16.11h0v21.71Z"/>
      </g>
      <circle class="cls-3" cx="26.69" cy="26.74" r="6.65"/>
    </g>
  </g>
</svg>